HIERARCHY
ROOT Hips
{
	OFFSET	0.00	0.00	0.00
	CHANNELS 6 Xposition Yposition Zposition Zrotation Xrotation Yrotation
	JOINT LeftUpLeg
	{
		OFFSET	 0.126116	-0.014019	-0.065224
		CHANNELS 3 Zrotation Xrotation Yrotation
		JOINT LeftLeg
		{
			OFFSET	 0.000000	 0.000000	 0.569914
			CHANNELS 3 Zrotation Xrotation Yrotation
			JOINT LeftFoot
			{
				OFFSET	 0.000000	 0.000000	 0.544423
				CHANNELS 3 Zrotation Xrotation Yrotation
				JOINT LeftToeBase
				{
					OFFSET	 0.000000	 0.000000	 0.207117
					CHANNELS 3 Zrotation Xrotation Yrotation
					End Site
					{
						OFFSET	 0.000000	 0.000000	 0.207117
					}
				}
			}
		}
	}
	JOINT RightUpLeg
	{
		OFFSET	-0.124023	-0.008373	-0.065224
		CHANNELS 3 Zrotation Xrotation Yrotation
		JOINT RightLeg
		{
			OFFSET	 0.000000	 0.000000	 0.570047
			CHANNELS 3 Zrotation Xrotation Yrotation
			JOINT RightFoot
			{
				OFFSET	 0.000000	 0.000000	 0.544354
				CHANNELS 3 Zrotation Xrotation Yrotation
				JOINT RightToeBase
				{
					OFFSET	 0.000000	 0.000000	 0.207540
					CHANNELS 3 Zrotation Xrotation Yrotation
					End Site
					{
						OFFSET	 0.000000	 0.000000	 0.207540
					}
				}
			}
		}
	}
	JOINT Spine
	{
		OFFSET	 0.000184	-0.007763	 0.117403
		CHANNELS 3 Zrotation Xrotation Yrotation
		JOINT Spine1
		{
			OFFSET	 0.000000	 0.000000	 0.137269
			CHANNELS 3 Zrotation Xrotation Yrotation
			JOINT Spine2
			{
				OFFSET	 0.000000	 0.000000	 0.156879
				CHANNELS 3 Zrotation Xrotation Yrotation
				JOINT LeftShoulder
				{
					OFFSET	 0.080501	-0.002496	 0.160144
					CHANNELS 3 Zrotation Xrotation Yrotation
					JOINT LeftArm
					{
						OFFSET	 0.000000	 0.000000	 0.164363
						CHANNELS 3 Zrotation Xrotation Yrotation
						JOINT LeftForeArm
						{
							OFFSET	 0.000000	 0.000000	 0.364576
							CHANNELS 3 Zrotation Xrotation Yrotation
							JOINT LeftHand
							{
								OFFSET	 0.000000	 0.000000	 0.360812
								CHANNELS 3 Zrotation Xrotation Yrotation
								JOINT LeftHandIndex1
								{
									OFFSET	 0.000000	 0.000000	 0.086006
									CHANNELS 3 Zrotation Xrotation Yrotation
									JOINT LeftHandIndex2
									{
										OFFSET	 0.000000	 0.000000	 0.047236
										CHANNELS 3 Zrotation Xrotation Yrotation
										JOINT LeftHandIndex3
										{
											OFFSET	-0.004284	-0.000551	 0.038166
											CHANNELS 3 Zrotation Xrotation Yrotation
											End Site
											{
												OFFSET	-0.004284	-0.000551	 0.038166
											}
										}
									}
								}
							}
						}
					}
				}
				JOINT Neck
				{
					OFFSET	 0.000000	 0.000000	 0.176489
					CHANNELS 3 Zrotation Xrotation Yrotation
					JOINT Head
					{
						OFFSET	 0.000000	-0.001747	 0.077940
						CHANNELS 3 Zrotation Xrotation Yrotation
						End Site
						{
							OFFSET	 0.000000	-0.001747	 0.077940
						}
					}
				}
				JOINT RightShoulder
				{
					OFFSET	-0.080363	 0.000306	 0.159706
					CHANNELS 3 Zrotation Xrotation Yrotation
					JOINT RightArm
					{
						OFFSET	 0.000000	 0.000000	 0.164196
						CHANNELS 3 Zrotation Xrotation Yrotation
						JOINT RightForeArm
						{
							OFFSET	 0.000000	 0.000000	 0.365611
							CHANNELS 3 Zrotation Xrotation Yrotation
							JOINT RightHand
							{
								OFFSET	 0.000000	 0.000000	 0.360648
								CHANNELS 3 Zrotation Xrotation Yrotation
								JOINT RightHandIndex1
								{
									OFFSET	 0.000000	 0.000000	 0.069977
									CHANNELS 3 Zrotation Xrotation Yrotation
									JOINT RightHandIndex2
									{
										OFFSET	 0.000000	 0.000000	 0.052305
										CHANNELS 3 Zrotation Xrotation Yrotation
										JOINT RightHandIndex3
										{
											OFFSET	 0.009002	-0.000782	 0.042196
											CHANNELS 3 Zrotation Xrotation Yrotation
											End Site
											{
												OFFSET	 0.009002	-0.000782	 0.042196
											}
										}
									}
								}
							}
						}
					}
				}
			}
		}
	}
}
MOTION
Frames:    10
Frame Time: 0.03333334
 0.009715	 0.007894	 1.179598	 5.641758	-0.892636	-3.678743	 22.275870	-10.746250	-177.046500	 1.283379	-44.031410	 0.646885	 103.819500	 84.257860	-107.767800	-2.368673	 31.735020	-0.072643	-31.585440	-37.705390	-179.037200	 11.424620	-49.541920	 9.328423	-6.443522	 78.970600	 12.983620	 2.358985	 32.997060	 0.103160	-9.594048	 8.601702	 0.632187	 1.769078	 2.784845	 3.455685	-9.511711	-2.113458	-4.222970	-94.087110	 58.977290	 175.069600	 10.042600	 25.520770	-40.432890	-6.365796	 0.224204	-3.187327	 0.673052	-8.336899	-8.116092	-4.865698	 19.357260	-2.798454	-3.871232	 21.604220	 2.192295	-4.804593	 5.588755	 0.144439	-0.043835	-5.101408	 0.224310	-11.341540	 1.994105	 1.934246	 89.724080	 61.743770	 179.861200	-18.220020	 49.925260	 8.145895	 2.580463	-0.793700	 11.326350	-4.507451	 7.026303	 0.299806	 6.279300	 23.764040	-0.548652	 2.017480	 43.611060	-7.110394	 0.753623	 23.269950	 3.454676
 0.009124	-0.006290	 1.175430	 5.882679	-0.671246	-3.685864	 22.670050	-10.568390	-177.478300	 1.402642	-44.658850	 0.738015	 114.032700	 84.257580	-117.987300	-2.368254	 31.803410	-0.074202	-33.397780	-38.737920	 179.626000	 11.423200	-47.887230	 9.097699	-11.351380	 79.728260	 17.874060	 2.359033	 32.990650	 0.103007	-11.668780	 8.485358	 0.593445	 1.705303	 2.721764	 3.463107	-9.504839	-2.043190	-4.187913	-94.147200	 58.987090	 174.940100	 9.370296	 24.504220	-40.533260	-7.295020	 0.320086	-3.660927	 0.764625	-8.426652	-8.342319	-4.863577	 19.411350	-2.802001	-3.867834	 21.647610	 2.188839	-4.803828	 5.597769	 0.143911	-0.031483	-5.110427	 0.242026	-11.300930	 2.064513	 1.912961	 89.700760	 61.786050	 179.805200	-18.117910	 50.156150	 7.731367	 3.201503	-0.558576	 11.339390	-4.470157	 7.202198	 0.198359	 6.273333	 23.341950	-0.554590	 2.066077	 43.198120	-7.153391	 0.844054	 22.864720	 3.410404
 0.005378	-0.091818	 1.148056	 6.548659	 0.422806	-4.140202	 25.437790	-8.620425	 179.869400	 1.838301	-47.451030	 1.094544	 161.125300	 81.919910	-164.696500	-2.363297	 32.589680	-0.092181	-40.954670	-43.302800	 172.174500	 11.169100	-38.568390	 7.512622	-37.398070	 80.317610	 43.486950	 2.358925	 33.006790	 0.103377	-22.702680	 7.722372	 0.856790	 1.325403	 2.779822	 3.320607	-9.231189	-1.714198	-3.894987	-94.412350	 58.977370	 174.376600	 5.610164	 19.581130	-41.124570	-13.279970	 1.145043	-6.321123	 0.203054	-9.196364	-7.860903	-4.838727	 19.961890	-2.821297	-3.840049	 21.999820	 2.160611	-4.786019	 5.807300	 0.131606	 0.004831	-5.217653	 0.327658	-10.956820	 2.447192	 1.933190	 89.513530	 61.997670	 179.351400	-17.115280	 50.760510	 7.945427	 6.124529	 1.070065	 6.390456	-4.603777	 8.221872	-1.386787	 6.223335	 20.456360	-0.652388	 2.357004	 40.584530	-7.408461	 1.482685	 19.923990	 3.113273
-0.000017	-0.165854	 1.123888	 6.867316	 0.727833	-4.519642	 26.107660	-5.450200	 177.203700	 2.185062	-48.030090	 1.362551	-178.076100	 80.143360	 175.145200	-2.344326	 35.199070	-0.153673	-43.236640	-48.817310	 167.115400	 11.654290	-36.616970	 7.478696	-85.902240	 82.776750	 90.769980	 2.339917	 35.532100	 0.163410	-32.220130	 7.580722	 1.178429	 0.994048	 2.802417	 3.059705	-8.578017	-1.399484	-3.487009	-94.528050	 58.916580	 174.140100	 2.573059	 17.319270	-41.817770	-18.363830	 2.350887	-8.756197	-0.873052	-9.862529	-7.803557	-4.837418	 20.431010	-2.953047	-3.800488	 22.495750	 2.120437	-4.739744	 6.348918	 0.099473	 0.080632	-5.362713	 0.352628	-10.238030	 2.850520	 1.783807	 89.380020	 61.999770	 179.029100	-15.561480	 51.488960	 4.907521	 8.639339	 2.259653	 8.830542	-4.269123	 8.373301	-3.597031	 6.171040	 17.107240	-0.705247	 2.774738	 36.362980	-7.766666	 2.172087	 16.598750	 2.824754
-0.008184	-0.245824	 1.109711	 7.246223	 0.629212	-4.189248	 24.630290	-0.789098	 174.368500	 2.763036	-45.112370	 1.708193	-155.888600	 82.453420	 153.681300	-2.280258	 41.490350	-0.316329	-42.747280	-50.883690	 164.907800	 11.284360	-35.801280	 7.113267	-59.833640	 80.324920	 65.829550	 2.338819	 35.664170	 0.166632	-39.768900	 7.740553	 1.041752	 0.550788	 2.128981	 2.566570	-7.716728	-0.809019	-2.976900	-94.516460	 59.210990	 174.115800	 0.538252	 16.893450	-41.970230	-22.476180	 3.767448	-10.807910	-2.169220	-11.271290	-8.749256	-4.878024	 20.606800	-3.241802	-3.764346	 22.943190	 2.083736	-4.674873	 7.101206	 0.054051	 0.184186	-5.481270	 0.277062	-9.208794	 3.318958	 1.671720	 89.355900	 61.650570	 178.983800	-14.132020	 51.876680	 2.301958	 11.133670	 3.667145	 10.889160	-3.792822	 7.714157	-5.254470	 6.191568	 13.967820	-0.411395	 3.023736	 33.548530	-7.974751	 2.786390	 13.512690	 2.597992
-0.019239	-0.351164	 1.098257	 8.260927	-0.288154	-2.618541	 23.745210	 4.930668	 168.873500	 0.321621	-42.234700	-0.020913	-60.031180	 81.581330	 62.983940	-2.013194	 54.787720	-0.777159	-38.104880	-47.627140	 166.918500	 7.366768	-37.296540	 4.944041	-36.603540	 68.923020	 50.959400	 2.335941	 36.004330	 0.174954	-46.318830	 8.089473	-0.239866	-0.454633	 1.388847	 1.771837	-6.606063	 0.140006	-2.433989	-94.408880	 59.152950	 174.355800	-0.232401	 16.454690	-41.130290	-27.326570	 5.650647	-12.853770	-3.353597	-10.675780	-8.670973	-4.895813	 20.864170	-3.430239	-3.739550	 23.247190	 2.058558	-4.583361	 8.148474	-0.010759	 0.339446	-5.431213	 0.273524	-7.787988	 4.040519	 2.292071	 89.255690	 61.410860	 178.755600	-12.890290	 51.851080	 0.628413	 14.451880	 5.543676	 12.942900	-3.845297	 6.748465	-5.445233	 6.322375	 10.447570	 0.288763	 3.260497	 30.641120	-8.168117	 3.352331	 10.576850	 2.416036
-0.030333	-0.446496	 1.094592	 10.158410	-1.178580	-1.160425	 22.316370	 5.931704	 164.252000	 1.190778	-45.642350	 0.599227	-21.152270	 67.410410	 29.903610	-0.997300	 71.178960	-2.013589	-39.277990	-44.598230	 167.146600	 9.878901	-42.571510	 7.240943	-28.022160	 63.727010	 43.945130	 2.346150	 34.757530	 0.144697	-48.813280	 8.351193	-1.093327	-1.447730	 1.000584	 0.578119	-5.739603	 0.899656	-1.712465	-94.267990	 59.255920	 174.641800	 0.685949	 16.741790	-40.321200	-30.298300	 7.264107	-14.236200	-3.339977	-8.616483	-8.977993	-4.829813	 21.237340	-3.164738	-3.684982	 23.907420	 2.003180	-4.516047	 8.908404	-0.058959	 0.405791	-5.332928	 0.251498	-6.614070	 4.819499	 2.558189	 89.036660	 60.959500	 178.265300	-12.009870	 51.340280	 0.472394	 18.343270	 7.168979	 14.327320	-2.929042	 6.088385	-3.821715	 6.365355	 8.589567	 0.488318	 3.390851	 28.936990	-8.272451	 3.639266	 9.058081	 2.334110
-0.044294	-0.546104	 1.097739	 9.784180	-1.656695	 0.560212	 29.498250	-0.252723	 155.541200	 1.259672	-54.876070	 0.741824	-4.600699	 47.846150	 26.731120	-2.110210	 51.173370	-0.629120	-41.462030	-42.053010	 166.370100	 8.570377	-49.825560	 7.153852	-22.812030	 66.870930	 39.533360	 2.370397	 31.184080	 0.061690	-45.717850	 8.631241	-2.004093	-1.913392	-0.295982	-0.256048	-4.370440	 1.858655	-1.223720	-94.074520	 59.830970	 174.973300	 2.203758	 18.704050	-38.934760	-31.421650	 8.929876	-15.415650	-2.865700	-7.365338	-9.219390	-4.753684	 21.623640	-2.831040	-3.604483	 24.860030	 1.921523	-4.451748	 9.626029	-0.105409	 0.312723	-5.388648	 0.175702	-5.358713	 5.261444	 2.705452	 89.039050	 60.265740	 178.310400	-11.787480	 50.924960	 0.301899	 22.910550	 8.868290	 15.507330	-0.967414	 4.452994	-1.878422	 6.402804	 9.497464	 0.632331	 3.338248	 29.633800	-8.230538	 3.622077	 9.149601	 2.338818
-0.054017	-0.643360	 1.106612	 7.427687	-2.505555	 1.790502	 34.166930	-7.973171	 150.441300	-5.312831	-65.600620	-5.162417	 4.725044	 47.212900	 18.571740	-2.380415	 29.605820	-0.025122	-39.743500	-37.946130	 167.752500	 8.191518	-54.116250	 7.271171	-25.906040	 72.886550	 41.543300	 2.374330	 30.485290	 0.046021	-38.009090	 9.381110	-2.685046	-1.847594	-1.453094	-0.620892	-2.683122	 2.627973	-0.901698	-93.995150	 59.490180	 175.195300	 3.652777	 20.721530	-37.308930	-32.514040	 10.326800	-16.246020	-3.745412	-7.441369	-8.417934	-4.664065	 22.834470	-2.664098	-3.524044	 25.787620	 1.839959	-4.346074	 10.787810	-0.182572	 0.178770	-5.350915	 0.114088	-4.122087	 5.231157	 2.780024	 89.310980	 60.348900	 178.925700	-12.534430	 50.529650	 2.698763	 26.677310	 10.287860	 16.327570	 0.966430	 2.771204	-0.374732	 6.392063	 12.047090	 0.571029	 3.101974	 32.613590	-8.039170	 3.327384	 10.707970	 2.423491
-0.058614	-0.722953	 1.118267	 5.859239	-3.223800	 1.884327	 31.953230	-13.705650	 152.268400	-11.423280	-76.211430	-11.445720	 3.765557	 58.688060	 14.529550	-2.380333	 29.621010	-0.025454	-38.109060	-34.000260	 170.289200	 6.834802	-56.072990	 6.311550	-32.566890	 78.197390	 47.489120	 2.374309	 30.487270	 0.046072	-28.564940	 9.941606	-2.391373	-1.844840	-1.295939	-1.081112	-1.195775	 2.691648	-0.239391	-93.844180	 59.568870	 175.511600	 5.208570	 23.142390	-36.643660	-32.199010	 11.338800	-16.777530	-4.692330	-6.640607	-7.453251	-4.593406	 23.823770	-2.530225	-3.447628	 26.646840	 1.762517	-4.219939	 12.145890	-0.275972	 0.037148	-5.210635	-0.010347	-2.960472	 5.028837	 2.563449	 89.528000	 59.986430	 179.427200	-13.605810	 48.476400	 7.769155	 30.632160	 11.334360	 16.844160	 2.994988	 0.265115	 0.328149	 6.373044	 15.075670	 0.448489	 2.897372	 35.006640	-7.869713	 2.880996	 13.027780	 2.565731
